<svg xmlns="http://www.w3.org/2000/svg" width="45.697" height="45.697" viewBox="0 0 45.697 45.697">
  <g id="Group_2" data-name="Group 2" transform="translate(0 -0.002)">
    <g id="Group_3" data-name="Group 3" transform="translate(0 0)">
      <path id="Path_4" data-name="Path 4" d="M22.848,0A22.848,22.848,0,1,1,0,22.848,22.848,22.848,0,0,1,22.848,0m0,2.283A20.566,20.566,0,1,1,2.283,22.848,20.562,20.562,0,0,1,22.848,2.283" transform="translate(0 0.002)" fill-rule="evenodd"/>
      <path id="Path_5" data-name="Path 5" d="M3.531,3.531a7.5,7.5,0,1,1-2.2,5.306,7.475,7.475,0,0,1,2.2-5.306m5.311-.507a5.81,5.81,0,1,0,4.114,1.7,5.795,5.795,0,0,0-4.114-1.7" transform="translate(10.63 10.631)" fill-rule="evenodd"/>
      <path id="Path_6" data-name="Path 6" d="M4.256,4.5l.24-.24a1.623,1.623,0,0,1,1.15-.476,1.605,1.605,0,0,1,1.15.476L12.28,9.734a1.628,1.628,0,0,1,0,2.3l-.246.24a1.605,1.605,0,0,1-1.15.476,1.623,1.623,0,0,1-1.15-.476L4.256,6.8a1.628,1.628,0,0,1,0-2.3" transform="translate(20.988 20.989)"/>
      <path id="Path_7" data-name="Path 7" d="M4.977,3.777,6.258,5.058a.849.849,0,0,1,0,1.2.839.839,0,0,1-1.2,0L3.78,4.974a.839.839,0,0,1,0-1.2.849.849,0,0,1,1.2,0" transform="translate(19.926 19.931)" fill-rule="evenodd"/>
    </g>
  </g>
</svg>
