<svg xmlns="http://www.w3.org/2000/svg" width="57.732" height="50.858" viewBox="0 0 57.732 50.858">
  <g id="Group_171" data-name="Group 171" transform="translate(0 0)">
    <g id="Group_172" data-name="Group 172" transform="translate(0 0)">
      <path id="Path_91" data-name="Path 91" d="M45.693,16.469a9.453,9.453,0,1,0-12.665-.041H25.311a9.452,9.452,0,1,0-12.711,0H10.932a9.668,9.668,0,0,0-1.577.14,4.9,4.9,0,0,0-5.8-.317l-1.325.865A4.93,4.93,0,0,0,.8,23.931c.043.067.1.118.152.18A10.069,10.069,0,0,0,.6,26.758v12.83a4.886,4.886,0,0,0,4.905,4.891,4.833,4.833,0,0,0,2.417-.664v5.8a1.238,1.238,0,0,0,2.476,0V30.143a1.238,1.238,0,0,0-1.238-1.238l-.019,0H3.078v-2.15a7.757,7.757,0,0,1,.134-1.41c.092.007.177.033.27.033a3.176,3.176,0,0,0,1.746-.521l4.212-2.748a3.2,3.2,0,0,0,1.4-3.2c.031,0,.059,0,.09,0H26.976a7.862,7.862,0,0,1,7.853,7.854v2.15H28.764l-.019,0a1.238,1.238,0,0,0-1.238,1.238v9.445c0,.016,0,.032,0,.05V49.62a1.238,1.238,0,0,0,2.476,0v-5.8a4.869,4.869,0,0,0,7.317-4.232V26.758A10.3,10.3,0,0,0,33.668,18.9H44.885a10.376,10.376,0,0,1,10.352,10h-6.06a1.238,1.238,0,0,0-1.238,1.238V49.62a1.238,1.238,0,0,0,2.476,0v-5.8a4.836,4.836,0,0,0,2.42.666,4.9,4.9,0,0,0,4.9-4.9V29.275a12.854,12.854,0,0,0-12.04-12.806M7.923,31.385v8.2A2.419,2.419,0,0,1,5.507,42a2.447,2.447,0,0,1-1.715-.7,2.415,2.415,0,0,1-.714-1.717v-8.2ZM8.084,20.04l-4.21,2.75a.742.742,0,0,1-1-.212,2.45,2.45,0,0,1,.712-3.387l1.325-.864a2.446,2.446,0,0,1,3.387.712.725.725,0,0,1-.212,1m10.872-3.611a6.976,6.976,0,1,1,6.975-6.976,6.984,6.984,0,0,1-6.975,6.976M34.829,39.588A2.418,2.418,0,0,1,32.414,42a2.443,2.443,0,0,1-1.715-.7,2.417,2.417,0,0,1-.711-1.668V31.385h4.841Zm4.553-23.159a6.976,6.976,0,1,1,6.976-6.976,6.984,6.984,0,0,1-6.976,6.976M55.256,39.587a2.42,2.42,0,1,1-4.841,0v-8.2h4.841Z" transform="translate(0 0)" fill="#fff"/>
    </g>
  </g>
</svg>
