<svg xmlns="http://www.w3.org/2000/svg" width="38.122" height="38.124" viewBox="0 0 38.122 38.124">
  <g id="Group_169" data-name="Group 169" transform="translate(0.434)">
    <g id="Group_71" data-name="Group 71" transform="translate(-0.434 0)">
      <path id="Path_39" data-name="Path 39" d="M36.061,4.389,33.734,2.062a7.085,7.085,0,0,0-9.994,0L3.965,21.838a6.643,6.643,0,0,0-1.8,3.331L.052,35.585a1.971,1.971,0,0,0,.582,1.9,2.088,2.088,0,0,0,1.481.635,1.164,1.164,0,0,0,.423-.053l10.417-2.115a6.462,6.462,0,0,0,3.331-1.8L36.061,14.382a7.047,7.047,0,0,0,2.062-4.97,7.17,7.17,0,0,0-2.062-5.023M23.9,6.715,26.49,9.306,9.147,26.649,6.556,24.058ZM5.921,33.946,4.176,32.2l.952-4.759,5.5,5.5Zm8.143-2.327-2.591-2.591L28.817,11.686l2.591,2.591ZM33.787,11.844,26.226,4.283a3.711,3.711,0,0,1,5.076.106l2.327,2.327a3.683,3.683,0,0,1,1.058,2.591,3.274,3.274,0,0,1-.9,2.538" transform="translate(-0.001)" fill="#fff"/>
    </g>
  </g>
</svg>
