<svg id="Group_1782" data-name="Group 1782" xmlns="http://www.w3.org/2000/svg" xmlns:xlink="http://www.w3.org/1999/xlink" width="81.233" height="78.081" viewBox="0 0 81.233 78.081">
  <defs>
    <clipPath id="clip-path">
      <rect id="Rectangle_75" data-name="Rectangle 75" width="81.233" height="78.081" fill="none"/>
    </clipPath>
  </defs>
  <g id="Group_1781" data-name="Group 1781" clip-path="url(#clip-path)">
    <path id="Path_626" data-name="Path 626" d="M11.783,132.7a5.248,5.248,0,0,0,3.846-1.61,5.425,5.425,0,0,0,0-7.669,5.248,5.248,0,0,0-3.846-1.61H3.421v6.417A5.305,5.305,0,0,1,5.3,127.9h5.881a.644.644,0,0,0,.459-.179.592.592,0,0,0,.19-.447.619.619,0,0,0-.19-.47.646.646,0,0,0-.459-.179H5.3v-3.444h5.881a3.936,3.936,0,0,1,2.885,1.208,4.036,4.036,0,0,1,1.208,2.884,3.864,3.864,0,0,1-1.208,2.862,4.035,4.035,0,0,1-2.885,1.208H3.89a5.17,5.17,0,0,0-2.258.492A5.6,5.6,0,0,0,0,133.039V118.393H11.783a8.624,8.624,0,0,1,3.444.693,8.994,8.994,0,0,1,4.74,4.74,8.852,8.852,0,0,1,0,6.864,9.039,9.039,0,0,1-1.923,2.84,8.894,8.894,0,0,1-4.136,2.348l7.512,14.556H11.6l-2.884-5.59v5.59H0v-14a3.736,3.736,0,0,1,.38-1.543,4.134,4.134,0,0,1,1.14-1.386,3.9,3.9,0,0,1,2.1-.8l2.818-.022,2.795.022Zm4,14.31L10.2,136.124H5.21a4.168,4.168,0,0,0-1.5.157q-.291.157-.291.827v9.905H5.3v-9.525H8.787l4.9,9.525Z" transform="translate(0 -80.649)" fill="#1e89e2"/>
    <path id="Path_627" data-name="Path 627" d="M83.521,118.393v9.592H80.1v-6.171H78.222v8.071a2.924,2.924,0,0,1,.358-.022H90.318V118.393h8.743v32.041H90.318V138.427H78.468a.231.231,0,0,0-.246.246v8.34H80.1v-6.708h3.421v10.129H74.8V138.673a3.665,3.665,0,0,1,3.667-3.667H93.762v12.007H95.64v-25.2H93.762v11.47H78.535A5.622,5.622,0,0,0,74.8,134.8V118.393Z" transform="translate(-50.954 -80.649)" fill="#1e89e2"/>
    <path id="Path_628" data-name="Path 628" d="M158.419,140.507a13.857,13.857,0,0,1-.4-3.287,13.62,13.62,0,0,1,.537-3.756,14.049,14.049,0,0,1,3.578-6.059,12.926,12.926,0,0,1,9.168-3.667h.447a10.791,10.791,0,0,1,7.6,3h2.571a12.479,12.479,0,0,0-3.2-2.929,12.575,12.575,0,0,0-14.2.425,13.7,13.7,0,0,0-3.2,2.348,14.936,14.936,0,0,0-3.891,6.573,15.63,15.63,0,0,0-.559,4.114,16.317,16.317,0,0,0,.47,3.734l.022.089a15.53,15.53,0,0,1-1.453-6.663,15.964,15.964,0,0,1,16.009-16.032,15.482,15.482,0,0,1,8.653,2.527,14.846,14.846,0,0,1,4.36,4.159,21.518,21.518,0,0,1,1.453,2.448,14,14,0,0,1,1.051,2.65h-9.592a8.959,8.959,0,0,0-3.108-2.437,7.776,7.776,0,0,0-3.242-.6q-.313,0-.626.022a9.465,9.465,0,0,0-6.328,2.683,10.73,10.73,0,0,0-3.108,7.445,9.99,9.99,0,0,0,.291,2.393,9.493,9.493,0,0,0,1.6,3.376,9.879,9.879,0,0,0,3.1,2.683,12.594,12.594,0,0,0,12.209-.648,13.241,13.241,0,0,0,3.13-2.773H179.1a10.89,10.89,0,0,1-2.974,1.9,10.6,10.6,0,0,1-8.34.033,10.8,10.8,0,0,1-3.4-2.292,9.483,9.483,0,0,1-1.118-1.342,8.113,8.113,0,0,1-.4-1.207,9.572,9.572,0,0,1-.246-2.146,9.383,9.383,0,0,1,.358-2.549,9.082,9.082,0,0,1,2.37-4.047,7.939,7.939,0,0,1,.939-.8,7.053,7.053,0,0,0-1.587,4.561,7.253,7.253,0,0,0,7.222,7.222,7.014,7.014,0,0,0,2.862-.581,6.843,6.843,0,0,0,1.576-.939,11.988,11.988,0,0,0,1.308-1.252H187.4a15.745,15.745,0,0,1-1.33,3.063,18.231,18.231,0,0,1-1.845,2.75,14.5,14.5,0,0,1-3.756,3.287,15.524,15.524,0,0,1-8.541,2.46,14.746,14.746,0,0,1-8.474-2.549,12.364,12.364,0,0,1-5.031-7.379" transform="translate(-106.209 -80.65)" fill="#1e89e2"/>
    <path id="Path_629" data-name="Path 629" d="M127.488,33.547s8.735-1.357,10.8-11.568c0,0,.177-4.309,0-7.378s1.594-3.954,2.184-3.128.767,5.371,1.181,5.961,2.479,1.83,2.656-1.712a22.292,22.292,0,0,0-2.6-12.63C139-2.1,141.948.554,142.774,1.735s4.663,6.433,4.073,12.985-5.135,17.942-19.359,18.828" transform="translate(-86.844 0)" fill="#4e8feb"/>
    <path id="Path_630" data-name="Path 630" d="M80.63,33.547s-8.735-1.357-10.8-11.568c0,0-.177-4.309,0-7.378s-1.594-3.954-2.184-3.128-.767,5.371-1.181,5.961-2.479,1.83-2.656-1.712a22.292,22.292,0,0,1,2.6-12.63C69.121-2.1,66.17.554,65.343,1.735S60.681,8.168,61.271,14.72,66.406,32.662,80.63,33.547" transform="translate(-41.696 0)" fill="#4e8feb"/>
    <path id="Path_631" data-name="Path 631" d="M100.893,32.643a3.957,3.957,0,0,0,.31-2.405c-.28-1.254-1.466-3.413-5.794-6.6S87.815,18.286,87.5,14.9s2.125-6.374,2.125-6.374-.748,4.761,3.227,7.437,10.27,6.846,11.45,10.309,1.141,6.414-.511,8.617a5.3,5.3,0,0,1-7.515.764" transform="translate(-59.586 -5.809)" fill="#d34a6f"/>
    <path id="Path_632" data-name="Path 632" d="M115.854,32.452a2.956,2.956,0,0,1-1.81,2.4,5.482,5.482,0,0,1-2.912.8s-2.636-2.5-1.613-7.335,5.627-8.224,7.476-9.522,6.925-4.21,6.965-7.122,0-3.148,0-3.148a7.963,7.963,0,0,1,2.518,5.784c.039,3.738-4.525,6.988-5.824,7.783s-6.881,4.887-7.277,7.6.116,3.817,2.476,2.754" transform="translate(-74.443 -5.81)" fill="#4e8feb"/>
    <path id="Path_633" data-name="Path 633" d="M121.356,15.429A2.951,2.951,0,1,0,118.4,18.38a2.951,2.951,0,0,0,2.951-2.951" transform="translate(-78.647 -8.5)" fill="#d34a6f"/>
    <path id="Path_634" data-name="Path 634" d="M1.275,233.408a4.824,4.824,0,0,1,.894-.075,1.475,1.475,0,0,1,1.044.295.9.9,0,0,1,.284.685.947.947,0,0,1-.68.921v.016a.9.9,0,0,1,.53.728,5.67,5.67,0,0,0,.278.99H3.143a4.673,4.673,0,0,1-.241-.862c-.107-.5-.3-.685-.722-.7H1.741v1.563H1.275Zm.466,1.643h.476c.5,0,.814-.273.814-.685,0-.465-.337-.669-.83-.674a1.921,1.921,0,0,0-.46.043Z" transform="translate(-0.869 -158.946)" fill="#1e89e2"/>
    <path id="Path_635" data-name="Path 635" d="M26.971,237.863a.83.83,0,0,0,.889.9,1.706,1.706,0,0,0,.718-.134l.08.337a2.1,2.1,0,0,1-.862.161,1.2,1.2,0,0,1-1.274-1.306,1.258,1.258,0,0,1,1.215-1.4,1.1,1.1,0,0,1,1.071,1.221,1.753,1.753,0,0,1-.016.219Zm1.381-.337a.671.671,0,0,0-.653-.765.78.78,0,0,0-.723.765Z" transform="translate(-18.066 -161.051)" fill="#1e89e2"/>
    <path id="Path_636" data-name="Path 636" d="M53.75,238.988a1.738,1.738,0,0,1-.744.15,1.231,1.231,0,0,1-1.29-1.322,1.316,1.316,0,0,1,1.392-1.376,1.577,1.577,0,0,1,.653.134l-.107.364a1.1,1.1,0,0,0-.546-.123.977.977,0,0,0-.016,1.949,1.342,1.342,0,0,0,.578-.128Z" transform="translate(-35.229 -161.062)" fill="#1e89e2"/>
    <path id="Path_637" data-name="Path 637" d="M76.562,237.29c0-.305-.005-.567-.021-.808h.412l.016.508h.021a.777.777,0,0,1,.717-.567.505.505,0,0,1,.134.016v.444a.7.7,0,0,0-.161-.016.661.661,0,0,0-.632.605,1.341,1.341,0,0,0-.021.219v1.381h-.465Z" transform="translate(-52.139 -161.051)" fill="#1e89e2"/>
    <path id="Path_638" data-name="Path 638" d="M101.016,238.492c0,.268.005.5.021.707h-.418l-.026-.423h-.011a.974.974,0,0,1-.856.482c-.407,0-.894-.225-.894-1.135v-1.515H99.3v1.435c0,.493.15.824.578.824a.682.682,0,0,0,.621-.428.69.69,0,0,0,.043-.241v-1.59h.471Z" transform="translate(-67.324 -161.177)" fill="#1e89e2"/>
    <path id="Path_639" data-name="Path 639" d="M125.314,233.7a.292.292,0,0,1-.583,0,.287.287,0,0,1,.294-.294.279.279,0,0,1,.289.294m-.524.728h.471v2.591h-.471Z" transform="translate(-84.966 -158.992)" fill="#1e89e2"/>
    <path id="Path_640" data-name="Path 640" d="M145.567,234.274v.744h.674v.359h-.674v1.4c0,.321.091.5.353.5a1.037,1.037,0,0,0,.273-.032l.022.354a1.151,1.151,0,0,1-.418.064.652.652,0,0,1-.508-.2.959.959,0,0,1-.182-.674v-1.413h-.4v-.359h.4V234.4Z" transform="translate(-98.573 -159.587)" fill="#1e89e2"/>
    <path id="Path_641" data-name="Path 641" d="M167.925,237.183c0-.267-.005-.487-.021-.7h.412l.022.417h.016a.893.893,0,0,1,.814-.476.766.766,0,0,1,.733.519h.011a1.062,1.062,0,0,1,.289-.337.885.885,0,0,1,.573-.182c.343,0,.851.225.851,1.124v1.525h-.46v-1.466c0-.5-.182-.8-.562-.8a.609.609,0,0,0-.557.428.778.778,0,0,0-.038.236v1.6h-.46V237.52c0-.412-.182-.712-.541-.712a.7.7,0,0,0-.621.7v1.563h-.46Z" transform="translate(-114.376 -161.051)" fill="#1e89e2"/>
    <path id="Path_642" data-name="Path 642" d="M198.617,237.863a.83.83,0,0,0,.889.9,1.706,1.706,0,0,0,.717-.134l.08.337a2.1,2.1,0,0,1-.862.161,1.2,1.2,0,0,1-1.274-1.306,1.258,1.258,0,0,1,1.215-1.4,1.1,1.1,0,0,1,1.071,1.221,1.754,1.754,0,0,1-.016.219Zm1.381-.337a.671.671,0,0,0-.653-.765.78.78,0,0,0-.723.765Z" transform="translate(-134.991 -161.051)" fill="#1e89e2"/>
    <path id="Path_643" data-name="Path 643" d="M223.9,237.183c0-.267-.005-.487-.021-.7h.417l.027.428h.011a.954.954,0,0,1,.857-.487c.359,0,.915.214.915,1.1v1.547h-.471v-1.493c0-.418-.155-.766-.6-.766a.67.67,0,0,0-.632.482.678.678,0,0,0-.032.219v1.558H223.9Z" transform="translate(-152.508 -161.051)" fill="#1e89e2"/>
    <path id="Path_644" data-name="Path 644" d="M249.921,234.274v.744h.674v.359h-.674v1.4c0,.321.091.5.353.5a1.037,1.037,0,0,0,.273-.032l.022.354a1.151,1.151,0,0,1-.418.064.652.652,0,0,1-.508-.2.959.959,0,0,1-.182-.674v-1.413h-.4v-.359h.4V234.4Z" transform="translate(-169.658 -159.587)" fill="#1e89e2"/>
  </g>
</svg>
